<?xml version="1.0" encoding="UTF-8"?>
<svg xmlns="http://www.w3.org/2000/svg" xmlns:xlink="http://www.w3.org/1999/xlink" width="50px" height="50px" viewBox="0 0 50 50" version="1.1">
<g id="surface1">
<path style=" stroke:none;fill-rule:evenodd;fill:rgb(25.490198%,15.686275%,27.450982%);fill-opacity:1;" d="M 25.050781 0 L 1.691406 8.109375 L 5.035156 39.097656 L 25.050781 50 Z M 25.050781 0 "/>
<path style=" stroke:none;fill-rule:evenodd;fill:rgb(29.411766%,19.215687%,30.980393%);fill-opacity:1;" d="M 24.949219 0 L 48.308594 8.109375 L 44.964844 39.097656 L 24.949219 50 Z M 24.949219 0 "/>
<path style=" stroke:none;fill-rule:evenodd;fill:rgb(72.941178%,16.862746%,82.352942%);fill-opacity:1;" d="M 36.644531 17.109375 L 36.636719 17.097656 C 37.707031 18.285156 38.253906 19.691406 38.28125 21.324219 C 38.3125 22.957031 37.761719 24.679688 36.625 26.484375 C 37.476562 25.824219 38.457031 24.398438 39.566406 22.222656 C 40.046875 26.628906 38.265625 29.980469 34.207031 32.273438 C 35.503906 32.152344 37.222656 31.300781 39.355469 29.710938 C 37.078125 35.195312 32.890625 38.085938 26.792969 38.390625 C 20.898438 38.386719 17.082031 34.847656 17.085938 34.847656 C 14.664062 32.964844 12.996094 30.585938 12.089844 27.730469 C 10.640625 26.144531 10.625 25.976562 10.476562 25.34375 C 10.328125 24.710938 10.570312 24.535156 10.996094 23.917969 C 11.277344 23.503906 11.34375 22.910156 11.199219 22.148438 C 10.839844 21.648438 10.632812 20.863281 10.578125 19.796875 C 10.578125 19.28125 10.921875 18.738281 11.609375 18.164062 C 12.296875 17.589844 12.71875 17.152344 12.871094 16.847656 C 12.988281 16.683594 13.035156 15.96875 13.007812 14.699219 C 13 13.453125 13.691406 12.777344 15.082031 12.667969 C 17.164062 12.503906 18.339844 10.9375 18.996094 10.222656 C 19.433594 9.746094 20.078125 9.515625 20.894531 9.511719 C 22.039062 9.457031 23.085938 9.898438 23.984375 10.804688 C 26.222656 10.691406 28.515625 11.292969 30.839844 12.601562 C 34.144531 14.566406 35.949219 16.691406 36.25 18.96875 C 35.894531 21.964844 31.871094 21.886719 24.191406 18.730469 C 20.171875 19.871094 18.195312 22.335938 18.261719 26.132812 C 18.257812 29.613281 19.945312 32.144531 23.308594 33.71875 C 21.667969 32.113281 20.972656 30.757812 21.207031 29.640625 C 24.613281 33.675781 28.496094 35.183594 32.847656 34.164062 C 30.929688 34.234375 29.410156 33.617188 28.265625 32.304688 C 31.207031 32.234375 33.980469 30.871094 36.597656 28.195312 C 35.085938 29.398438 33.507812 29.851562 31.835938 29.566406 C 36.363281 26.007812 37.964844 21.855469 36.644531 17.109375 Z M 28.425781 16.5625 C 28.792969 16.5625 29.089844 16.265625 29.089844 15.898438 C 29.089844 15.53125 28.792969 15.234375 28.425781 15.234375 C 28.058594 15.234375 27.761719 15.53125 27.761719 15.898438 C 27.761719 16.265625 28.058594 16.5625 28.425781 16.5625 Z M 28.425781 16.5625 "/>
</g>
</svg>
